# xmcd
# 
# Track frame offsets:
#     150
#     19745
#     43052
# 
# Disc length: 809
# 
# Revision: 6
# Processed by: cddbd v1.5.2PL0 Copyright (c) Steve Scherf et al.
# Submitted via: fre:ac v1.0.31
# 
DISCID=1d032703
DTITLE=The Corrs - What Can I Do (Single)
DYEAR=1998
DGENRE=Pop
TTITLE0=What Can I Do
TTITLE1=Little Wing
TTITLE2=No Good For Me (Live)
EXTD=
EXTT0=
EXTT1=
EXTT2=Recorded Live For Danish Broadcasting Corporation P3 In Copenhagen 25th October 1997
PLAYORDER=
